<svg xmlns="http://www.w3.org/2000/svg" width="21.386" height="25" viewBox="0 0 21.386 25">
  <g id="Group_2430" data-name="Group 2430" transform="translate(-49.728 -578.687)">
    <path id="Icon_payment-invoice-sign-alt-o" data-name="Icon payment-invoice-sign-alt-o" d="M31.856,21.672A3.529,3.529,0,0,1,32.54,22.7a2.925,2.925,0,0,1,.244,1.221V40.031a1.169,1.169,0,0,1-.39.927,1.266,1.266,0,0,1-.927.391H12.716a1.263,1.263,0,0,1-.927-.391,1.167,1.167,0,0,1-.391-.927V17.668a1.167,1.167,0,0,1,.391-.927,1.265,1.265,0,0,1,.927-.391h12.5a2.906,2.906,0,0,1,1.221.293,3.675,3.675,0,0,1,1.074.635Zm-.83,17.871V25.285H25.216a1.263,1.263,0,0,1-.927-.391,1.225,1.225,0,0,1-.39-.976V18.156H13.155V39.543H31.026ZM16.72,27.531a.471.471,0,0,1,.146-.342.421.421,0,0,1,.293-.146h9.864a.423.423,0,0,1,.293.146.47.47,0,0,1,.146.342v.879q0,.245-.146.293a.424.424,0,0,1-.293.146H17.159a.423.423,0,0,1-.293-.146q-.146-.048-.146-.293v-.879Zm10.3,3.125a.4.4,0,0,1,.293.1.47.47,0,0,1,.146.342v.879a.47.47,0,0,1-.146.342.744.744,0,0,1-.293.1H17.159a.737.737,0,0,1-.293-.1.469.469,0,0,1-.146-.342V31.1a.471.471,0,0,1,.146-.342.4.4,0,0,1,.293-.1Zm0,3.565a.752.752,0,0,1,.293.1.47.47,0,0,1,.146.342v.879a.47.47,0,0,1-.146.342.744.744,0,0,1-.293.1H17.159a.737.737,0,0,1-.293-.1.469.469,0,0,1-.146-.342V34.66a.471.471,0,0,1,.146-.342.746.746,0,0,1,.293-.1ZM25.655,18.254v5.225h5.273a.9.9,0,0,0-.342-.537l-4.346-4.395a1.6,1.6,0,0,0-.586-.293Z" transform="translate(38.33 562.337)" fill="#ee7540"/>
  </g>
</svg>
