<svg xmlns="http://www.w3.org/2000/svg" width="25.705" height="29.091" viewBox="0 0 25.705 29.091">
  <path id="Icon_awesome-bell" data-name="Icon awesome-bell" d="M11.853,27.091a3.386,3.386,0,0,0,3.385-3.386H8.468A3.386,3.386,0,0,0,11.853,27.091Zm11.4-7.922c-1.022-1.1-2.935-2.751-2.935-8.164a8.356,8.356,0,0,0-6.77-8.21v-1.1a1.692,1.692,0,1,0-3.384,0V2.8a8.356,8.356,0,0,0-6.77,8.21c0,5.413-1.913,7.065-2.935,8.164A1.653,1.653,0,0,0,0,20.319a1.7,1.7,0,0,0,1.7,1.693H22.007a1.694,1.694,0,0,0,1.7-1.693A1.652,1.652,0,0,0,23.249,19.17Z" transform="translate(1 1)" fill="none" stroke="#ee7540" stroke-width="2"/>
</svg>
