<svg xmlns="http://www.w3.org/2000/svg" width="22.614" height="32.195" viewBox="0 0 22.614 32.195">
  <g id="Group_2304" data-name="Group 2304" transform="translate(0.75 1.811)">
    <g id="Group_103" data-name="Group 103">
      <path id="Icon_material-receipt" data-name="Icon material-receipt" d="M4.5,31.573l1.76-1.76,1.76,1.76,1.76-1.76,1.759,1.76,1.76-1.76,1.76,1.76,1.759-1.76,1.76,1.76,1.76-1.76,1.759,1.76,1.76-1.76,1.759,1.76V3L23.855,4.76,22.1,3,20.336,4.76,18.576,3l-1.76,1.76L15.057,3,13.3,4.76,11.538,3,9.779,4.76,8.019,3,6.26,4.76,4.5,3Z" transform="translate(-4.5 -3)" fill="none" stroke="#ee7540" stroke-linecap="round" stroke-width="1.5"/>
      <line id="Line_11" data-name="Line 11" x2="8.325" transform="translate(2.84 4.53)" fill="none" stroke="#ee7540" stroke-linecap="round" stroke-width="1"/>
      <line id="Line_14" data-name="Line 14" x2="8.325" transform="translate(2.84 12.144)" fill="none" stroke="#ee7540" stroke-linecap="round" stroke-width="1"/>
      <line id="Line_16" data-name="Line 16" x2="8.325" transform="translate(2.84 14.445)" fill="none" stroke="#ee7540" stroke-linecap="round" stroke-width="1"/>
      <line id="Line_18" data-name="Line 18" x2="8.325" transform="translate(2.84 16.746)" fill="none" stroke="#ee7540" stroke-linecap="round" stroke-width="1"/>
      <line id="Line_13" data-name="Line 13" x2="3.917" transform="translate(14.263 4.53)" fill="none" stroke="#ee7540" stroke-linecap="round" stroke-width="1"/>
      <line id="Line_15" data-name="Line 15" x2="2.326" transform="translate(15.854 12.144)" fill="none" stroke="#ee7540" stroke-linecap="round" stroke-width="1"/>
      <line id="Line_17" data-name="Line 17" x2="2.326" transform="translate(15.854 14.445)" fill="none" stroke="#ee7540" stroke-linecap="round" stroke-width="1"/>
      <line id="Line_21" data-name="Line 21" x2="2.326" transform="translate(15.854 21.349)" fill="none" stroke="#ee7540" stroke-linecap="round" stroke-width="1"/>
      <line id="Line_19" data-name="Line 19" x2="2.326" transform="translate(15.854 16.746)" fill="none" stroke="#ee7540" stroke-linecap="round" stroke-width="1"/>
      <line id="Line_22" data-name="Line 22" x2="2.326" transform="translate(15.854 23.858)" fill="none" stroke="#ee7540" stroke-linecap="round" stroke-width="1"/>
      <line id="Line_12" data-name="Line 12" x2="15.34" transform="translate(2.84 7.798)" fill="none" stroke="#ee7540" stroke-linecap="round" stroke-width="1"/>
    </g>
  </g>
</svg>
